# xmcd CD database file
#
# Track frame offsets:
#	150
#	17047
#	32439
#	47078
#	67228
#	85100
#	100572
#	115664
#	133198
#	149725
#
# Disc length: 2237 seconds
#
# Revision: 12
# Processed by: cddbd v1.5.1PL0 Copyright (c) Steve Scherf et al.
# Submitted via: CDex 1.51
#
DISCID=8608bb0a
DTITLE=AC/DC - Flick Of The Switch
DYEAR=1983
DGENRE=Heavy Metal
TTITLE0=Rising Power
TTITLE1=This House Is On Fire
TTITLE2=Flick Of The Switch
TTITLE3=Nervous Shakedown
TTITLE4=Landslide
TTITLE5=Guns For Hire
TTITLE6=Deep In The Hole
TTITLE7=Bedlam In Belgium
TTITLE8=Badlands
TTITLE9=Brain Shake
EXTD=YEAR: 1983
EXTT0=
EXTT1=
EXTT2=
EXTT3=
EXTT4=
EXTT5=
EXTT6=
EXTT7=
EXTT8=
EXTT9=
PLAYORDER=
